{"title":"[GAY] Ten clips of Russian boys having fun","uid":8344717,"size":447769778,"categoryP":"porn","categoryS":"movie_clips","magnet":"?xt=urn:btih:2139b1fe450dd22086b5cf0b9a2485fb598394ab&amp;dn=%5BGAY%5D+Ten+clips+of+Russian+boys+having+fun&amp;tr=udp%3A%2F%2Ftracker.openbittorrent.com%3A80&amp;tr=udp%3A%2F%2Fopen.demonii.com%3A1337&amp;tr=udp%3A%2F%2Ftracker.coppersurfer.tk%3A6969&amp;tr=udp%3A%2F%2Fexodus.desync.com%3A6969","seeders":0,"leechers":5,"uploader":"GaySubsGR","files":-1,"time":1365169835,"description":"General\nFormat                                   : MPEG-4\nFormat profile                           : Base Media\nCodec ID                                 : isom\nFile size                                : 34.3 MiB\nDuration                                 : Variable\nOverall bit rate mode                    : Variable\nOverall bit rate                         : 209 Kbps\nWriting application                      : Lavf52.93.0\n\nVideo\nID                                       : 1\nFormat                                   : AVC\nFormat/Info                              : Advanced Video Codec\nFormat profile                           : &lt;a class=&quot;__cf_email__&quot; href=&quot;/cdn-cgi/l/email-protection&quot; data-cfemail=&quot;420f232b2c020e736c70&quot;&gt;[email&amp;#160;protected]&lt;/a&gt;&lt;script cf-hash='f9e31' type=&quot;text/javascript&quot;&gt;\n/* &lt;![CDATA[ */!function(){try{var t=&quot;currentScript&quot;in document?document.currentScript:function(){for(var t=document.getElementsByTagName(&quot;script&quot;),e=t.length;e--;)if(t[e].getAttribute(&quot;cf-hash&quot;))return t[e]}();if(t&amp;&amp;t.previousSibling){var e,r,n,i,c=t.previousSibling,a=c.getAttribute(&quot;data-cfemail&quot;);if(a){for(e=&quot;&quot;,r=parseInt(a.substr(0,2),16),n=2;a.length-n;n+=2)i=parseInt(a.substr(n,2),16)^r,e+=String.fromCharCode(i);e=document.createTextNode(e),c.parentNode.replaceChild(e,c)}}}catch(u){}}();/* ]]&gt; */&lt;/script&gt;\nFormat settings, CABAC                   : Yes\nFormat settings, ReFrames                : 2 frames\nCodec ID                                 : avc1\nCodec ID/Info                            : Advanced Video Coding\nDuration                                 : 22mn 54s\nBit rate                                 : 156 Kbps\nWidth                                    : Variable\nHeight                                   : Variable\nDisplay aspect ratio                     : 4:3\nFrame rate mode                          : Constant\nFrame rate                               : 20.000 fps\nColor space                              : YUV\nChroma subsampling                       : 4:2:0\nBit depth                                : 8 bits\nScan type                                : Progressive\nBits/(Pixel*Frame)                       : 0.101\nStream size                              : 25.5 MiB (74%)\nWriting library                          : x264 core 120 r2146 bcd41db\nEncoding settings                        : cabac=1 / ref=1 / deblock=1:0:0 / analyse=0x1:0x31 / me=hex / subme=5 / psy=1 / psy_rd=1.00:0.00 / mixed_ref=0 / me_range=16 / chroma_me=1 / trellis=0 / 8x8dct=0 / cqm=0 / deadzone=21,11 / fast_pskip=1 / chroma_qp_offset=0 / threads=18 / sliced_threads=0 / nr=0 / decimate=1 / interlaced=0 / bluray_compat=0 / constrained_intra=0 / bframes=16 / b_pyramid=0 / b_adapt=1 / b_bias=0 / direct=1 / weightb=0 / open_gop=0 / weightp=2 / keyint=250 / keyint_min=25 / scenecut=40 / intra_refresh=0 / rc_lookahead=40 / rc=crf / mbtree=1 / crf=25.0 / qcomp=0.60 / qpmin=10 / qpmax=51 / qpstep=4 / ip_ratio=1.41 / aq=1:1.00\n\nAudio\nID                                       : 2\nFormat                                   : AAC\nFormat/Info                              : Advanced Audio Codec\nFormat profile                           : LC\nCodec ID                                 : 40\nDuration                                 : Variable\nBit rate mode                            : Variable\nBit rate                                 : 48.0 Kbps\nChannel(s)                               : 2 channels\nChannel positions                        : Front: L R\nSampling rate                            : 44.1 KHz\nCompression mode                         : Lossy\nDelay relative to video                  : 50ms\nStream size                              : 7.96 MiB (23%)\n\n\n** GREEk **\nSulogi apo clip teniwn.\nSunolo: 10 arxeia\n\nMin 3exasete na kanete seed! ;)\n\nScreens:\n\nClip 1: http://bayimg.com/nALLKAAEF\nClip 2: http://bayimg.com/NaLLlaaef\nClip 3: http://bayimg.com/nallNAaEF\nClip 4: http://bayimg.com/nAllOAaef\nClip 5: http://bayimg.com/nAllpaAEf\nClip 6: http://bayimg.com/oallAAAef\nClip 7: http://bayimg.com/oallbaAef\nClip 8: http://bayimg.com/oaLLDAAeF\nClip 9: http://bayimg.com/oalleaaeF\nClip 10: http://bayimg.com/oaLLFaaEf\n\nBreite me edw: https://thepiratebay.se/user/GaySubsGR/","torrent":{"xt":"urn:btih:2139b1fe450dd22086b5cf0b9a2485fb598394ab","amp;dn":"%5BGAY%5D+Ten+clips+of+Russian+boys+having+fun","amp;tr":["udp%3A%2F%2Ftracker.openbittorrent.com%3A80","udp%3A%2F%2Fopen.demonii.com%3A1337","udp%3A%2F%2Ftracker.coppersurfer.tk%3A6969","udp%3A%2F%2Fexodus.desync.com%3A6969"],"infoHash":"2139b1fe450dd22086b5cf0b9a2485fb598394ab","infoHashBuffer":{"type":"Buffer","data":[33,57,177,254,69,13,210,32,134,181,207,11,154,36,133,251,89,131,148,171]},"announce":[],"urlList":[]}}